<svg viewBox="0 0 670 504" fill="none" xmlns="http://www.w3.org/2000/svg">
<path d="M386.101 24.6307C391.848 36.8062 379.67 40.255 365.721 46.7809C351.771 53.3069 341.332 60.4388 335.585 48.2632C329.838 36.0877 325.175 11.9214 344.909 2.68928C365.323 -6.86085 380.354 12.4551 386.101 24.6307Z" fill="#19202D"/>
<path d="M357.639 48.574C368.011 48.574 376.419 40.2035 376.419 29.8781C376.419 19.5526 368.011 11.1821 357.639 11.1821C347.268 11.1821 338.86 19.5526 338.86 29.8781C338.86 40.2035 347.268 48.574 357.639 48.574Z" fill="#FFB8B8"/>
<path d="M450.676 112.793C450.026 111.948 449.376 111.119 448.719 110.312C447.87 109.261 447.016 108.244 446.157 107.259C436.424 96.0772 426.071 89.036 414.671 88.2824H414.656L414.488 88.2672L391.771 110.312L384.049 117.802L384.217 118.213L388.384 128.542H461.396C458.106 123.107 454.528 117.85 450.676 112.793Z" fill="#19202D"/>
<path d="M337.219 37.4064L343.941 34.2615L343.005 24.6069L347.5 32.5967L350.713 31.0936L350.167 25.4617L352.789 30.1224L376.663 18.9535C374.421 14.2029 370.375 10.5337 365.415 8.75301C360.455 6.97233 354.988 7.22607 350.216 9.4584L346.756 11.0771C341.985 13.3094 338.299 17.3375 336.51 22.2752C334.722 27.2129 334.977 32.6558 337.219 37.4064Z" fill="#19202D"/>
<path d="M492.806 376.769H100.689C97.3442 376.765 94.1375 375.44 91.7724 373.086C89.4072 370.731 88.0768 367.539 88.0731 364.209V129.641C88.0758 127.201 89.0504 124.863 90.7831 123.138C92.5158 121.412 94.865 120.442 97.3155 120.439H496.02C498.512 120.442 500.902 121.429 502.665 123.184C504.428 124.939 505.419 127.318 505.422 129.8V364.209C505.418 367.539 504.088 370.731 501.723 373.086C499.358 375.44 496.151 376.765 492.806 376.769Z" fill="#E9EBEE"/>
<path d="M112.922 364.208H480.572C483.816 364.208 486.928 362.925 489.222 360.641C491.516 358.357 492.805 355.259 492.805 352.029V152.938C492.805 149.708 491.516 146.61 489.222 144.326C486.928 142.042 483.816 140.759 480.572 140.759H112.922C109.677 140.759 106.566 142.042 104.271 144.326C101.977 146.61 100.688 149.708 100.688 152.938V352.029C100.688 355.259 101.977 358.357 104.271 360.641C106.566 362.925 109.677 364.208 112.922 364.208Z" fill="white"/>
<path d="M505.246 128.921H87.8961V122.527C87.9009 119.186 89.2367 115.983 91.6105 113.621C93.9842 111.26 97.202 109.932 100.558 109.929H492.585C495.94 109.932 499.158 111.26 501.532 113.621C503.906 115.983 505.242 119.186 505.246 122.527V128.921Z" fill="#FFB800"/>
<path d="M110.907 122.705C112.716 122.705 114.183 121.245 114.183 119.445C114.183 117.644 112.716 116.184 110.907 116.184C109.099 116.184 107.632 117.644 107.632 119.445C107.632 121.245 109.099 122.705 110.907 122.705Z" fill="white"/>
<path d="M123.338 122.705C125.147 122.705 126.613 121.245 126.613 119.445C126.613 117.644 125.147 116.184 123.338 116.184C121.529 116.184 120.063 117.644 120.063 119.445C120.063 121.245 121.529 122.705 123.338 122.705Z" fill="white"/>
<path d="M135.769 122.705C137.578 122.705 139.044 121.245 139.044 119.445C139.044 117.644 137.578 116.184 135.769 116.184C133.96 116.184 132.494 117.644 132.494 119.445C132.494 121.245 133.96 122.705 135.769 122.705Z" fill="white"/>
<path d="M308.217 321.032H275.339C273.413 321.03 271.567 320.267 270.205 318.911C268.843 317.556 268.078 315.718 268.075 313.8V281.069C268.078 279.151 268.843 277.313 270.205 275.958C271.567 274.602 273.413 273.839 275.339 273.837H308.217C310.143 273.839 311.989 274.602 313.351 275.958C314.712 277.313 315.478 279.151 315.481 281.069V313.8C315.478 315.718 314.712 317.556 313.351 318.911C311.989 320.267 310.143 321.03 308.217 321.032ZM275.339 275.36C273.819 275.361 272.361 275.963 271.286 277.034C270.211 278.104 269.606 279.555 269.605 281.069V313.8C269.606 315.314 270.211 316.765 271.286 317.835C272.361 318.906 273.819 319.508 275.339 319.509H308.217C309.737 319.508 311.195 318.906 312.27 317.835C313.345 316.765 313.95 315.314 313.951 313.8V281.069C313.95 279.555 313.345 278.104 312.27 277.034C311.195 275.963 309.737 275.361 308.217 275.36H275.339Z" fill="#ACB1BA"/>
<path d="M301.719 311.897H281.84C281.231 311.897 280.648 311.656 280.218 311.228C279.788 310.8 279.546 310.219 279.546 309.614V285.255C279.546 284.65 279.788 284.069 280.218 283.641C280.648 283.213 281.231 282.972 281.84 282.972H296.244C296.767 282.972 297.274 283.15 297.681 283.475L303.156 287.855C303.424 288.068 303.64 288.339 303.789 288.648C303.937 288.956 304.014 289.293 304.013 289.635V309.614C304.012 310.219 303.77 310.8 303.34 311.228C302.91 311.656 302.327 311.897 301.719 311.897ZM281.84 284.494C281.637 284.494 281.443 284.575 281.299 284.717C281.156 284.86 281.075 285.053 281.075 285.255V309.614C281.075 309.815 281.156 310.009 281.299 310.152C281.443 310.294 281.637 310.375 281.84 310.375H301.719C301.922 310.375 302.116 310.294 302.26 310.152C302.403 310.009 302.484 309.815 302.484 309.614V289.635C302.484 289.521 302.459 289.409 302.409 289.306C302.36 289.203 302.288 289.113 302.198 289.042L296.723 284.662C296.587 284.553 296.418 284.494 296.244 284.494H281.84Z" fill="#ACB1BA"/>
<path d="M297.895 293.628H285.661C285.459 293.628 285.264 293.548 285.121 293.405C284.977 293.263 284.897 293.069 284.897 292.867C284.897 292.665 284.977 292.472 285.121 292.329C285.264 292.186 285.459 292.106 285.661 292.106H297.895C298.098 292.106 298.292 292.186 298.436 292.329C298.579 292.472 298.66 292.665 298.66 292.867C298.66 293.069 298.579 293.263 298.436 293.405C298.292 293.548 298.098 293.628 297.895 293.628Z" fill="#ACB1BA"/>
<path d="M297.895 298.195H285.661C285.459 298.195 285.264 298.114 285.121 297.972C284.977 297.829 284.897 297.635 284.897 297.433C284.897 297.232 284.977 297.038 285.121 296.895C285.264 296.752 285.459 296.672 285.661 296.672H297.895C298.098 296.672 298.292 296.752 298.436 296.895C298.579 297.038 298.66 297.232 298.66 297.433C298.66 297.635 298.579 297.829 298.436 297.972C298.292 298.114 298.098 298.195 297.895 298.195Z" fill="#ACB1BA"/>
<path d="M297.895 302.763H285.661C285.459 302.763 285.264 302.683 285.121 302.54C284.977 302.397 284.897 302.204 284.897 302.002C284.897 301.8 284.977 301.606 285.121 301.463C285.264 301.321 285.459 301.24 285.661 301.24H297.895C298.098 301.24 298.292 301.321 298.436 301.463C298.579 301.606 298.66 301.8 298.66 302.002C298.66 302.204 298.579 302.397 298.436 302.54C298.292 302.683 298.098 302.763 297.895 302.763Z" fill="#ACB1BA"/>
<path d="M386.209 321.032H353.331C351.405 321.03 349.559 320.267 348.197 318.911C346.836 317.556 346.07 315.718 346.068 313.8V281.069C346.07 279.151 346.836 277.313 348.197 275.958C349.559 274.602 351.405 273.839 353.331 273.837H386.209C388.135 273.839 389.981 274.602 391.343 275.958C392.705 277.313 393.471 279.151 393.473 281.069V313.8C393.471 315.718 392.705 317.556 391.343 318.911C389.981 320.267 388.135 321.03 386.209 321.032ZM353.331 275.36C351.811 275.361 350.353 275.963 349.278 277.034C348.203 278.104 347.598 279.555 347.597 281.069V313.8C347.598 315.314 348.203 316.765 349.278 317.835C350.353 318.906 351.811 319.508 353.331 319.509H386.209C387.729 319.508 389.187 318.906 390.262 317.835C391.337 316.765 391.942 315.314 391.944 313.8V281.069C391.942 279.555 391.337 278.104 390.262 277.034C389.187 275.963 387.729 275.361 386.209 275.36H353.331Z" fill="#ACB1BA"/>
<path d="M380.472 305.806H359.064C358.455 305.806 357.872 305.565 357.442 305.137C357.012 304.709 356.77 304.128 356.77 303.523V291.344C356.77 290.738 357.012 290.158 357.442 289.73C357.872 289.301 358.455 289.061 359.064 289.06H380.472C381.081 289.061 381.664 289.301 382.094 289.73C382.524 290.158 382.766 290.738 382.766 291.344V303.523C382.766 304.128 382.524 304.709 382.094 305.137C381.664 305.565 381.081 305.806 380.472 305.806ZM359.064 290.582C358.861 290.583 358.666 290.663 358.523 290.806C358.38 290.948 358.299 291.142 358.299 291.344V303.523C358.299 303.725 358.38 303.918 358.523 304.061C358.666 304.204 358.861 304.284 359.064 304.284H380.472C380.675 304.284 380.869 304.204 381.013 304.061C381.156 303.918 381.237 303.725 381.237 303.523V291.344C381.237 291.142 381.156 290.948 381.013 290.806C380.869 290.663 380.675 290.583 380.472 290.582H359.064Z" fill="#ACB1BA"/>
<path d="M369.771 299.442C369.341 299.443 368.92 299.324 368.555 299.098L357.132 291.99C356.96 291.883 356.838 291.712 356.793 291.516C356.748 291.319 356.782 291.113 356.89 290.942C356.997 290.771 357.168 290.649 357.366 290.604C357.563 290.558 357.771 290.592 357.943 290.699L369.366 297.807C369.488 297.882 369.628 297.921 369.771 297.921C369.914 297.921 370.054 297.882 370.176 297.807L381.599 290.699C381.771 290.592 381.978 290.558 382.176 290.604C382.373 290.649 382.544 290.771 382.651 290.942C382.759 291.113 382.794 291.319 382.748 291.516C382.703 291.712 382.581 291.883 382.41 291.99L370.987 299.098C370.622 299.324 370.201 299.443 369.771 299.442Z" fill="#ACB1BA"/>
<path d="M230.228 321.032H197.351C195.425 321.03 193.579 320.267 192.217 318.911C190.855 317.556 190.089 315.718 190.087 313.8V281.069C190.089 279.151 190.855 277.313 192.217 275.958C193.579 274.602 195.425 273.839 197.351 273.837H230.228C232.154 273.839 234.001 274.602 235.362 275.958C236.724 277.313 237.49 279.151 237.492 281.069V313.8C237.49 315.718 236.724 317.556 235.362 318.911C234.001 320.267 232.154 321.03 230.228 321.032ZM197.351 275.36C195.83 275.361 194.373 275.963 193.298 277.034C192.223 278.104 191.618 279.555 191.616 281.069V313.8C191.618 315.314 192.223 316.765 193.298 317.835C194.373 318.906 195.83 319.508 197.351 319.509H230.228C231.749 319.508 233.206 318.906 234.282 317.835C235.357 316.765 235.961 315.314 235.963 313.8V281.069C235.961 279.555 235.357 278.104 234.282 277.034C233.206 275.963 231.749 275.361 230.228 275.36H197.351Z" fill="#ACB1BA"/>
<path d="M224.495 305.806H203.087C202.479 305.806 201.895 305.565 201.465 305.137C201.035 304.709 200.794 304.128 200.793 303.523V291.344C200.794 290.738 201.035 290.158 201.465 289.73C201.895 289.301 202.479 289.061 203.087 289.06H224.495C225.104 289.061 225.687 289.301 226.117 289.73C226.547 290.158 226.789 290.738 226.789 291.344V303.523C226.789 304.128 226.547 304.709 226.117 305.137C225.687 305.565 225.104 305.806 224.495 305.806ZM203.087 290.582C202.884 290.583 202.69 290.663 202.546 290.806C202.403 290.948 202.322 291.142 202.322 291.344V303.523C202.322 303.725 202.403 303.918 202.546 304.061C202.69 304.204 202.884 304.284 203.087 304.284H224.495C224.698 304.284 224.893 304.204 225.036 304.061C225.179 303.918 225.26 303.725 225.26 303.523V291.344C225.26 291.142 225.179 290.948 225.036 290.806C224.893 290.663 224.698 290.583 224.495 290.582H203.087Z" fill="#ACB1BA"/>
<path d="M221.102 305.807H205.715C205.447 305.807 205.183 305.737 204.95 305.603C204.718 305.47 204.525 305.277 204.391 305.046C204.256 304.815 204.186 304.552 204.186 304.285C204.186 304.017 204.257 303.755 204.391 303.523L209.026 295.531C209.16 295.299 209.353 295.107 209.585 294.974C209.818 294.84 210.082 294.77 210.35 294.77C210.618 294.77 210.882 294.84 211.115 294.974C211.347 295.107 211.54 295.299 211.674 295.531L214.668 300.693L216.402 297.702C216.536 297.471 216.729 297.279 216.962 297.145C217.194 297.011 217.458 296.941 217.726 296.941C217.995 296.941 218.259 297.011 218.491 297.145C218.724 297.279 218.917 297.471 219.051 297.702L222.427 303.523C222.561 303.755 222.631 304.018 222.631 304.285C222.631 304.552 222.561 304.815 222.426 305.046C222.292 305.277 222.099 305.47 221.867 305.603C221.634 305.737 221.37 305.807 221.102 305.807ZM221.102 304.285L217.726 298.463L215.33 302.596C215.263 302.712 215.167 302.808 215.05 302.874C214.934 302.941 214.802 302.976 214.668 302.976C214.534 302.976 214.402 302.941 214.285 302.874C214.169 302.808 214.073 302.712 214.006 302.596L210.35 296.292L205.715 304.285H221.102Z" fill="#ACB1BA"/>
<path d="M222.201 295.151C223.046 295.151 223.731 294.469 223.731 293.628C223.731 292.788 223.046 292.106 222.201 292.106C221.357 292.106 220.672 292.788 220.672 293.628C220.672 294.469 221.357 295.151 222.201 295.151Z" fill="#ACB1BA"/>
<path d="M587.845 493.499L578.471 493.498L574.011 457.503L587.846 457.503L587.845 493.499Z" fill="#FFB8B8"/>
<path d="M590.235 502.544L560.01 502.543V502.163C560.01 500.625 560.315 499.102 560.906 497.681C561.497 496.26 562.364 494.968 563.456 493.881C564.548 492.793 565.845 491.931 567.273 491.342C568.7 490.753 570.23 490.451 571.775 490.451H571.776L590.236 490.451L590.235 502.544Z" fill="#19202D"/>
<path d="M626.074 493.499L616.7 493.498L612.241 457.503L626.076 457.503L626.074 493.499Z" fill="#FFB8B8"/>
<path d="M628.465 502.544L598.24 502.543V502.163C598.24 500.625 598.544 499.102 599.136 497.681C599.727 496.26 600.593 494.968 601.686 493.881C602.778 492.793 604.075 491.931 605.503 491.342C606.93 490.753 608.46 490.451 610.005 490.451H610.005L628.466 490.451L628.465 502.544Z" fill="#19202D"/>
<path d="M623.265 477.895L614.583 475.266C613.936 475.07 613.361 474.689 612.93 474.17C612.5 473.651 612.233 473.017 612.162 472.348L604.068 395.979C604.062 395.887 604.021 395.8 603.953 395.737C603.885 395.674 603.795 395.639 603.702 395.639C603.61 395.63 603.517 395.658 603.444 395.716C603.371 395.774 603.324 395.858 603.312 395.95L589.755 469.939C589.673 470.388 589.501 470.816 589.25 471.198C589 471.58 588.675 471.908 588.295 472.163C587.915 472.418 587.487 472.595 587.038 472.684C586.588 472.773 586.125 472.771 585.676 472.679L574.581 470.403C573.767 470.234 573.042 469.778 572.539 469.119C572.036 468.46 571.788 467.642 571.842 466.817L580.089 345.547L636.01 339.54L627.7 474.826C627.646 475.696 627.262 476.513 626.625 477.11C625.988 477.708 625.147 478.042 624.272 478.044C623.93 478.044 623.591 477.994 623.265 477.895Z" fill="#19202D"/>
<path d="M623.21 239.94C633.582 239.94 641.99 231.569 641.99 221.244C641.99 210.918 633.582 202.548 623.21 202.548C612.839 202.548 604.431 210.918 604.431 221.244C604.431 231.569 612.839 239.94 623.21 239.94Z" fill="#FFB8B8"/>
<path d="M580.003 346.257L592.128 270.25C592.773 266.209 594.274 262.351 596.533 258.933C598.792 255.514 601.757 252.614 605.229 250.425C608.702 248.236 612.602 246.808 616.672 246.236C620.742 245.665 624.888 245.963 628.833 247.11C635.731 249.096 641.637 253.571 645.398 259.661C649.159 265.75 650.505 273.017 649.172 280.042L636.486 347.92L580.003 346.257Z" fill="#FFB800"/>
<path d="M628.396 359.858C629.334 359.241 630.125 358.427 630.713 357.473C631.301 356.52 631.671 355.449 631.799 354.337C631.926 353.225 631.807 352.099 631.45 351.038C631.093 349.977 630.506 349.007 629.732 348.196L642.268 324.027L628.15 325.527L618.41 348.248C617.127 349.634 616.4 351.44 616.366 353.323C616.332 355.207 616.992 357.038 618.223 358.469C619.454 359.9 621.17 360.832 623.045 361.088C624.92 361.344 626.824 360.906 628.396 359.858Z" fill="#FFB8B8"/>
<path d="M631.083 343.935C630.389 343.837 629.742 343.532 629.227 343.059L624.431 338.646C623.913 338.167 623.555 337.542 623.405 336.854C623.256 336.166 623.323 335.448 623.596 334.799L633.182 312.178L631.822 267.48C632.018 266.043 632.496 264.659 633.229 263.406C633.962 262.153 634.936 261.056 636.095 260.178C637.255 259.301 638.576 258.659 639.985 258.29C641.393 257.921 642.861 257.832 644.304 258.028C645.747 258.224 647.137 258.701 648.395 259.432C649.653 260.163 650.753 261.134 651.634 262.289C652.515 263.444 653.158 264.76 653.528 266.162C653.897 267.565 653.985 269.026 653.787 270.463L656.112 298.56C656.819 307.088 654.39 315.581 649.278 322.46L634.329 342.58C634.041 342.967 633.675 343.289 633.254 343.526C632.833 343.762 632.367 343.908 631.886 343.953C631.618 343.979 631.349 343.973 631.083 343.935Z" fill="#FFB800"/>
<path d="M515.069 211.058C515.274 212.159 515.718 213.201 516.371 214.112C517.024 215.023 517.87 215.78 518.849 216.33C519.828 216.88 520.916 217.21 522.036 217.297C523.157 217.383 524.283 217.224 525.335 216.83L542.803 237.746L546.92 224.218L529.701 206.43C528.92 204.714 527.533 203.343 525.804 202.577C524.075 201.811 522.124 201.703 520.32 202.274C518.516 202.844 516.986 204.054 516.018 205.673C515.05 207.292 514.713 209.208 515.069 211.058Z" fill="#FFB8B8"/>
<path d="M528.748 219.728C529.108 219.13 529.643 218.656 530.282 218.369L536.233 215.692C536.878 215.403 537.596 215.319 538.291 215.451C538.986 215.582 539.623 215.923 540.117 216.426L557.304 234.035L599.178 250.215C600.431 250.954 601.526 251.932 602.399 253.093C603.272 254.254 603.907 255.574 604.267 256.98C604.628 258.385 604.706 259.847 604.498 261.282C604.291 262.718 603.801 264.098 603.057 265.345C602.313 266.592 601.329 267.68 600.162 268.548C598.995 269.416 597.668 270.047 596.256 270.404C594.844 270.761 593.376 270.837 591.934 270.629C590.493 270.42 589.107 269.931 587.855 269.189L560.959 260.365C552.796 257.688 545.887 252.151 541.517 244.782L528.735 223.232C528.49 222.818 528.334 222.356 528.28 221.878C528.225 221.4 528.272 220.916 528.418 220.457C528.498 220.202 528.609 219.957 528.748 219.728Z" fill="#FFB800"/>
<path opacity="0.1" d="M638.441 286.072L637.677 310.43L623.591 334.797L635.352 307.643L638.441 286.072Z" fill="#13161A"/>
<path d="M621.058 224.757C619.879 224.91 618.684 224.631 617.695 223.973C616.707 223.314 615.991 222.321 615.683 221.178C615.385 219.862 614.733 218.651 613.797 217.675C612.861 216.7 611.675 215.997 610.368 215.641C606.923 214.857 602.713 216.472 600.189 213.873C599.648 213.28 599.257 212.567 599.048 211.794C598.838 211.021 598.817 210.209 598.984 209.426C599.449 206.901 601.263 204.993 603.238 203.468C607.393 200.272 612.421 198.401 617.663 198.101C620.376 198.023 623.091 198.157 625.784 198.503C628.602 198.68 631.39 199.187 634.09 200.014C637.165 201.17 639.899 203.078 642.037 205.564C644.176 208.049 645.65 211.031 646.325 214.234C646.942 217.446 646.847 220.755 646.047 223.927C645.247 227.1 643.762 230.06 641.694 232.602C639.218 235.671 636.026 238.09 632.396 239.65C631.531 240.056 630.54 240.106 629.638 239.789C627.377 238.894 627.747 236.105 628.778 234.245C629.881 232.255 631.579 230.328 630.691 227.906C630.247 226.782 629.393 225.867 628.3 225.343C626.052 224.202 623.538 224.472 621.122 224.75L621.058 224.757Z" fill="#19202D"/>
<path d="M508.792 235.315H276.353C273.008 235.311 269.802 233.986 267.436 231.632C265.071 229.277 263.741 226.085 263.737 222.755V173.276C263.741 169.947 265.071 166.754 267.436 164.399C269.802 162.045 273.008 160.72 276.353 160.717H508.792C512.137 160.72 515.343 162.045 517.708 164.4C520.074 166.754 521.404 169.947 521.408 173.276V222.755C521.404 226.085 520.074 229.277 517.708 231.632C515.343 233.986 512.137 235.311 508.792 235.315Z" fill="white"/>
<path d="M508.79 235.695H276.351C272.905 235.691 269.601 234.327 267.164 231.901C264.728 229.475 263.357 226.186 263.353 222.755V173.277C263.357 169.846 264.728 166.557 267.164 164.131C269.601 161.705 272.905 160.34 276.351 160.336H508.79C512.236 160.34 515.54 161.705 517.977 164.131C520.414 166.557 521.785 169.846 521.788 173.277V222.755C521.785 226.186 520.414 229.475 517.977 231.901C515.54 234.327 512.236 235.691 508.79 235.695ZM276.351 161.859C273.311 161.862 270.395 163.066 268.245 165.207C266.095 167.347 264.886 170.249 264.882 173.277V222.755C264.886 225.782 266.095 228.684 268.245 230.825C270.395 232.965 273.311 234.169 276.351 234.173H508.79C511.831 234.169 514.746 232.965 516.896 230.825C519.046 228.684 520.256 225.782 520.259 222.755V173.277C520.256 170.249 519.046 167.347 516.896 165.207C514.746 163.066 511.831 161.862 508.79 161.859H276.351Z" fill="#333E4F"/>
<path d="M480.5 223.137H304.641C301.297 223.133 298.09 221.808 295.725 219.454C293.36 217.099 292.029 213.907 292.025 210.577V184.696C292.029 181.366 293.36 178.174 295.725 175.819C298.09 173.464 301.297 172.14 304.641 172.136H480.5C483.844 172.14 487.051 173.464 489.416 175.819C491.781 178.174 493.112 181.366 493.116 184.696V210.577C493.112 213.907 491.781 217.099 489.416 219.454C487.051 221.808 483.844 223.133 480.5 223.137Z" fill="#E9EBEE"/>
<path d="M342.484 209.185C350.817 209.185 357.572 202.461 357.572 194.165C357.572 185.87 350.817 179.145 342.484 179.145C334.152 179.145 327.397 185.87 327.397 194.165C327.397 202.461 334.152 209.185 342.484 209.185Z" fill="#FF862E"/>
<path d="M469.573 221.62L448.276 203.839L427.348 186.365C426.796 185.903 426.098 185.651 425.377 185.653C424.656 185.654 423.959 185.909 423.408 186.372L402.547 203.927L397.452 208.215L389.769 201.8L366.42 182.305C365.868 181.844 365.17 181.592 364.449 181.593C363.728 181.594 363.031 181.849 362.481 182.312L339.208 201.897L315.569 221.79C315.449 221.891 315.363 222.025 315.323 222.176C315.283 222.327 315.29 222.487 315.345 222.633C315.399 222.78 315.497 222.906 315.625 222.996C315.754 223.085 315.907 223.133 316.064 223.132L364.529 223.039L379.87 223.01L379.72 223.136L425.449 223.049L469.083 222.965C469.24 222.965 469.392 222.916 469.521 222.827C469.649 222.737 469.747 222.61 469.8 222.463C469.854 222.317 469.86 222.157 469.82 222.006C469.779 221.855 469.693 221.721 469.573 221.62Z" fill="#125A26"/>
<path d="M669.236 503.64H522.432C522.229 503.64 522.035 503.56 521.892 503.417C521.748 503.274 521.668 503.081 521.668 502.879C521.668 502.677 521.748 502.483 521.892 502.34C522.035 502.198 522.229 502.117 522.432 502.117H669.236C669.439 502.117 669.633 502.198 669.776 502.34C669.92 502.483 670 502.677 670 502.879C670 503.081 669.92 503.274 669.776 503.417C669.633 503.56 669.439 503.64 669.236 503.64Z" fill="#ACB1BA"/>
<path d="M461.864 100.537C461.253 99.5487 460.446 98.6949 459.493 98.0275C458.54 97.3601 457.461 96.8929 456.32 96.6545C455.902 96.567 455.478 96.5136 455.051 96.4946L396.796 44.6415C395.652 43.4706 394.125 42.7445 392.491 42.5938C392.169 42.557 391.844 42.5468 391.52 42.5634C390.176 42.6242 388.879 43.0736 387.787 43.8566C386.696 44.6396 385.857 45.7223 385.373 46.9724C384.89 48.2224 384.783 49.5856 385.065 50.8953C385.348 52.2049 386.007 53.4043 386.963 54.3468L409.267 73.7042L445.891 105.484C445.921 106.083 446.011 106.677 446.159 107.258C446.597 108.941 447.539 110.452 448.859 111.589C450.18 112.727 451.816 113.439 453.552 113.629C455.135 113.813 456.739 113.55 458.178 112.868C459.32 112.337 460.332 111.565 461.145 110.607C461.229 110.508 461.305 110.417 461.382 110.31C462.451 108.923 463.07 107.245 463.156 105.498C463.242 103.752 462.791 102.021 461.864 100.537Z" fill="#FFB8B8"/>
<path d="M362.221 150.509L361.678 128.54L361.219 110.309L360.905 97.5516L360.286 72.6831C360.164 71.3516 359.654 70.0845 358.821 69.0363C357.987 67.9881 356.864 67.2043 355.591 66.7805C354.317 66.3568 352.947 66.3114 351.648 66.6499C350.348 66.9884 349.176 67.6961 348.274 68.6868C348.062 68.9131 347.87 69.1576 347.701 69.4175C346.759 70.7597 346.336 72.3948 346.508 74.0228L347.869 110.309L348.55 128.54L349.421 151.795C349.17 152.137 348.942 152.495 348.741 152.868C348.197 153.895 347.868 155.02 347.775 156.177C347.682 157.334 347.826 158.498 348.198 159.597C348.586 160.751 349.216 161.809 350.045 162.702C350.874 163.596 351.884 164.304 353.008 164.781C354.132 165.258 355.345 165.492 356.566 165.469C357.788 165.445 358.99 165.164 360.095 164.644C361.378 164.04 362.492 163.131 363.338 161.997C364.184 160.863 364.737 159.538 364.947 158.141C365.157 156.744 365.018 155.317 364.543 153.985C364.067 152.654 363.27 151.46 362.221 150.509Z" fill="#FFB8B8"/>
<path d="M414.671 88.2821L409.266 73.7051L400.519 50.0925C399.887 48.3745 398.876 46.82 397.559 45.5444C396.242 44.2688 394.653 43.3049 392.911 42.7241C392.773 42.6784 392.628 42.6327 392.49 42.5946C390.802 42.0846 389.024 41.9444 387.276 42.1835C385.529 42.4226 383.854 43.0355 382.367 43.98L352.907 62.5838C350.209 64.2837 348.28 66.9611 347.528 70.0505C346.776 73.1398 347.26 76.3992 348.877 79.14C352.562 85.4822 356.576 91.6284 360.905 97.5535C364.338 102.204 370.73 102.699 371.839 110.311H393.561L415.551 90.657L414.671 88.2821Z" fill="#ACB1BA"/>
<path d="M77.3513 266.433C87.1362 266.433 95.0684 258.536 95.0684 248.795C95.0684 239.054 87.1362 231.157 77.3513 231.157C67.5664 231.157 59.6342 239.054 59.6342 248.795C59.6342 258.536 67.5664 266.433 77.3513 266.433Z" fill="#A0616A"/>
<path d="M120.844 236.655C121.018 236.793 121.187 236.94 121.351 237.095C122.165 237.858 122.808 238.784 123.237 239.812C123.667 240.84 123.873 241.946 123.843 243.059C123.813 244.172 123.547 245.266 123.063 246.269C122.578 247.272 121.886 248.163 121.032 248.881C120.833 249.048 120.626 249.203 120.41 249.348L121.609 289.65C121.643 290.969 121.249 292.264 120.486 293.343C119.722 294.422 118.629 295.227 117.369 295.638L117.296 295.654L84.4272 299.139C83.5336 299.233 82.63 299.151 81.7686 298.896C80.9072 298.641 80.1051 298.218 79.4086 297.653C78.712 297.088 78.1349 296.391 77.7105 295.602C77.2861 294.814 77.0228 293.949 76.9358 293.059C76.8488 292.168 76.9399 291.269 77.2038 290.414C77.4677 289.559 77.8991 288.764 78.4732 288.076C79.0473 287.388 79.7527 286.819 80.5486 286.404C81.3445 285.989 82.2152 285.734 83.1104 285.656L106.541 283.601L110.593 248.699C110.328 248.466 110.08 248.214 109.85 247.946C108.58 246.449 107.914 244.535 107.981 242.577C108.048 240.618 108.844 238.754 110.214 237.347C111.584 235.94 113.431 235.09 115.395 234.962C117.359 234.834 119.301 235.437 120.844 236.655Z" fill="#A0616A"/>
<path d="M106.53 494.278H115.375L119.581 460.318H106.529L106.53 494.278Z" fill="#A0616A"/>
<path d="M104.277 491.404L121.693 491.403C123.151 491.403 124.595 491.689 125.941 492.244C127.288 492.799 128.511 493.613 129.542 494.639C130.573 495.665 131.39 496.883 131.948 498.224C132.506 499.565 132.793 501.001 132.793 502.452V502.812L104.278 502.813L104.277 491.404Z" fill="#19202D"/>
<path d="M18.6329 482.104L26.2315 486.608L47.2985 459.573L36.0834 452.925L18.6329 482.104Z" fill="#A0616A"/>
<path d="M18.1691 478.486L33.1336 487.356C34.386 488.098 35.4798 489.079 36.3514 490.242C37.2231 491.405 37.8561 492.728 38.2144 494.134C38.5726 495.541 38.6491 497.004 38.4394 498.44C38.2297 499.876 37.738 501.257 36.9922 502.503L36.8077 502.812L12.3065 488.289L18.1691 478.486Z" fill="#19202D"/>
<path d="M117.463 482.284H107.56C106.758 482.285 105.984 481.991 105.388 481.457C104.792 480.923 104.415 480.188 104.332 479.394L94.3484 385.966C94.3233 385.731 94.221 385.51 94.0576 385.339C93.8941 385.167 93.6784 385.054 93.4439 385.016C93.2093 384.979 92.9689 385.019 92.7597 385.131C92.5504 385.243 92.3841 385.421 92.2862 385.636L74.2757 425.34L42.3891 477.103C41.9764 477.767 41.3374 478.26 40.5892 478.493C39.8409 478.726 39.0334 478.683 38.3146 478.371L25.5762 472.792C25.155 472.607 24.778 472.336 24.4703 471.995C24.1625 471.654 23.931 471.252 23.7911 470.816C23.6513 470.379 23.6062 469.918 23.6589 469.463C23.7116 469.008 23.8608 468.569 24.0968 468.176L53.4094 419.313L62.3993 378.143C59.5719 360.289 71.6931 333.745 71.816 333.478L71.876 333.349L105.264 320.357L105.432 320.561C118.599 363.579 126.623 409.874 120.698 479.323C120.625 480.129 120.253 480.878 119.655 481.426C119.057 481.973 118.275 482.279 117.463 482.284Z" fill="#19202D"/>
<path d="M70.5283 337.699L70.3728 337.373C70.2985 337.217 62.8743 321.629 57.1513 304.968C56.0514 301.746 55.6356 298.331 55.9303 294.941C56.2249 291.551 57.2235 288.259 58.8629 285.273C60.5236 282.256 62.7956 279.615 65.5349 277.518C68.2742 275.421 71.4211 273.913 74.7763 273.09C80.601 271.7 86.7334 272.44 92.0563 275.174C97.3792 277.908 101.538 282.455 103.776 287.987C108.316 299.288 106.869 311.351 105.507 320.838L105.48 321.028L105.306 321.111L70.5283 337.699Z" fill="#333E4F"/>
<path d="M98.8306 238.833H70.6979V226.625C76.8727 224.183 82.9151 222.106 86.5676 226.625C89.8199 226.625 92.9391 227.911 95.2388 230.201C97.5385 232.49 98.8305 235.595 98.8306 238.833Z" fill="#19202D"/>
<path d="M69.1434 224.47C52.3252 224.47 47.6177 245.458 47.6177 257.298C47.6177 263.901 50.6173 266.262 55.3307 267.061L56.9953 258.223L60.894 267.442C62.218 267.448 63.6089 267.423 65.0509 267.396L66.3728 264.686L69.3206 267.347C81.1267 267.365 90.6687 269.078 90.6687 257.298C90.6687 245.458 86.5403 224.47 69.1434 224.47Z" fill="#19202D"/>
<path d="M147.568 503.64H0.764601C0.561817 503.64 0.367337 503.56 0.223946 503.417C0.0805554 503.274 0 503.081 0 502.879C0 502.677 0.0805554 502.483 0.223946 502.34C0.367337 502.198 0.561817 502.117 0.764601 502.117H147.568C147.771 502.117 147.965 502.198 148.109 502.34C148.252 502.483 148.333 502.677 148.333 502.879C148.333 503.081 148.252 503.274 148.109 503.417C147.965 503.56 147.771 503.64 147.568 503.64Z" fill="#ACB1BA"/>
<path d="M150.327 253.203H117.449C115.523 253.201 113.677 252.438 112.315 251.082C110.954 249.727 110.188 247.889 110.185 245.971V213.24C110.188 211.323 110.954 209.484 112.315 208.129C113.677 206.773 115.523 206.01 117.449 206.008H150.327C152.253 206.01 154.099 206.773 155.461 208.129C156.823 209.484 157.589 211.323 157.591 213.24V245.971C157.589 247.889 156.823 249.727 155.461 251.082C154.099 252.438 152.253 253.201 150.327 253.203Z" fill="white"/>
<path d="M150.327 253.203H117.449C115.523 253.201 113.677 252.438 112.315 251.082C110.954 249.727 110.188 247.889 110.185 245.971V213.24C110.188 211.323 110.954 209.484 112.315 208.129C113.677 206.773 115.523 206.01 117.449 206.008H150.327C152.253 206.01 154.099 206.773 155.461 208.129C156.823 209.484 157.589 211.323 157.591 213.24V245.971C157.589 247.889 156.823 249.727 155.461 251.082C154.099 252.438 152.253 253.201 150.327 253.203ZM117.449 207.531C115.929 207.532 114.471 208.134 113.396 209.205C112.321 210.275 111.716 211.726 111.715 213.24V245.971C111.716 247.485 112.321 248.936 113.396 250.007C114.471 251.077 115.929 251.679 117.449 251.681H150.327C151.847 251.679 153.305 251.077 154.38 250.007C155.455 248.936 156.06 247.485 156.062 245.971V213.24C156.06 211.726 155.455 210.275 154.38 209.205C153.305 208.134 151.847 207.532 150.327 207.531H117.449Z" fill="#333E4F"/>
<path d="M144.594 239.883H123.185C122.577 239.882 121.994 239.641 121.564 239.213C121.134 238.785 120.892 238.205 120.891 237.599V221.614C120.892 221.009 121.134 220.428 121.564 220C121.994 219.572 122.577 219.331 123.185 219.33H129.212C129.604 219.329 129.99 219.428 130.332 219.618C130.674 219.809 130.961 220.084 131.166 220.417L132.847 223.136H144.594C145.202 223.137 145.785 223.378 146.215 223.806C146.645 224.234 146.887 224.815 146.888 225.42V237.599C146.887 238.205 146.645 238.785 146.215 239.213C145.785 239.641 145.202 239.882 144.594 239.883Z" fill="#0066FF"/>
<path d="M143.896 247.958C144.003 248.153 144.102 248.353 144.193 248.56C144.645 249.578 144.877 250.679 144.872 251.792C144.867 252.906 144.626 254.005 144.164 255.019C143.703 256.033 143.032 256.938 142.194 257.676C141.357 258.414 140.372 258.967 139.305 259.299C139.057 259.375 138.804 259.439 138.549 259.489L123.946 297.096C123.463 298.325 122.595 299.367 121.471 300.066C120.346 300.765 119.026 301.085 117.704 300.977L117.631 300.964L85.9789 291.477C85.1184 291.219 84.3177 290.794 83.623 290.227C82.9284 289.659 82.3537 288.96 81.932 288.17C81.5103 287.379 81.2501 286.514 81.1663 285.623C81.0824 284.732 81.1767 283.834 81.4437 282.979C81.7106 282.125 82.1449 281.332 82.7215 280.646C83.2982 279.959 84.0056 279.393 84.8031 278.981C85.6006 278.568 86.4723 278.317 87.3678 278.242C88.2633 278.167 89.165 278.269 90.0207 278.542L112.416 285.7L129.754 255.099C129.601 254.781 129.471 254.453 129.364 254.117C128.776 252.247 128.908 250.226 129.733 248.447C130.559 246.667 132.019 245.257 133.83 244.49C135.641 243.722 137.674 243.652 139.534 244.293C141.395 244.934 142.949 246.24 143.896 247.958Z" fill="#A0616A"/>
</svg>
