<svg width="328" height="53" viewBox="0 0 328 53" fill="none" xmlns="http://www.w3.org/2000/svg">
<path fill-rule="evenodd" clip-rule="evenodd" d="M97.0221 7.59773H84.933C82.7423 7.59773 81.2117 8.03298 80.3412 8.90349C78.9535 10.3586 78.2596 11.8137 78.2596 13.2689V22.3224H92.3339V26.3553H78.2741V45.6285H74.1304V13.9771C74.1304 10.6686 75.1486 8.12292 77.1852 6.34015C79.2217 4.55739 81.8204 3.66761 84.9812 3.67082H97.0269V7.59773H97.0221ZM102.847 45.6092H98.7036V3.61301H102.847V45.6092ZM142.719 24.6689C142.68 30.2114 140.46 35.5157 136.541 39.4344C132.621 43.3532 127.316 45.5714 121.774 45.6092H107.55V3.69009H119.711C126.399 3.69009 131.908 5.68968 136.238 9.68886C140.568 13.688 142.732 18.6878 142.728 24.6882L142.719 24.6689ZM138.474 24.057C138.45 21.8218 137.945 19.6178 136.995 17.5944C136.045 15.571 134.671 13.7755 132.967 12.3293C129.517 9.21245 125.015 7.51833 120.367 7.5881H111.583V41.6727H121.566C123.84 41.7051 126.095 41.2566 128.184 40.3565C130.272 39.4563 132.147 38.125 133.684 36.4496C135.291 34.8263 136.544 32.8882 137.366 30.7572C138.188 28.6262 138.56 26.3483 138.459 24.0666L138.474 24.057ZM169.398 45.5996H157.352C154.191 45.5996 151.592 44.7098 149.556 42.9303C147.519 41.1507 146.501 38.605 146.501 35.2933V13.9771C146.501 10.6686 147.519 8.12292 149.556 6.34015C151.592 4.55739 154.191 3.66761 157.352 3.67082H169.398V7.59773H157.294C155.103 7.59773 153.573 8.03298 152.702 8.90349C151.31 10.349 150.621 11.7945 150.621 13.2689V22.3224H164.695V26.3553H150.635V36.0305C150.635 37.4759 151.324 38.9214 152.717 40.3669C153.59 41.2406 155.121 41.6759 157.309 41.6727H169.398V45.5996ZM194.539 45.5996H182.494C179.282 45.5996 176.664 44.7098 174.64 42.9303C172.616 41.1507 171.598 38.5809 171.585 35.221V3.61301H175.729V35.9678C175.729 37.4133 176.418 38.8588 177.81 40.2657C178.681 41.1395 180.229 41.5763 182.455 41.5763H194.539V45.6092V45.5996ZM200.158 45.5996H196.014V3.61301H200.177L200.158 45.5996Z" fill="#19202D"/>
<path fill-rule="evenodd" clip-rule="evenodd" d="M248.642 45.6096H244.387V8.50873L228.41 45.6096H224.864L209.156 8.57618V45.6096H204.848V3.61335H211.493L226.536 39.7505L242.171 3.61335H248.642V45.6096ZM292.657 45.6096H287.974L282.013 31.4293H262.567L256.688 45.6096H251.388L270.151 3.61335H274.844L292.671 45.6096H292.657ZM280.529 27.6662L272.56 8.47982L264.407 27.6662H280.529ZM327.999 45.6096H323.137L310.957 27.4687L298.974 45.6096H294.073L308.254 24.0573L294.575 3.57962H299.639L310.889 20.3617L321.836 3.57962H326.607L313.298 24.0333L327.999 45.6096Z" fill="#FFB800"/>
<path d="M51.7729 36.2334H40.4596V50.086H51.7729V36.2334Z" fill="#FFB800"/>
<path d="M51.7729 36.2334H40.4596V50.086H51.7729V36.2334Z" fill="black" fill-opacity="0.2"/>
<path d="M25.6378 36.2334H14.3245V50.086H25.6378V36.2334Z" fill="#FFB800"/>
<path d="M25.6378 36.2334H14.3245V50.086H25.6378V36.2334Z" fill="black" fill-opacity="0.2"/>
<path fill-rule="evenodd" clip-rule="evenodd" d="M19.678 5.47366C23.1905 10.5955 23.5712 16.4401 20.5308 18.5409C17.4905 20.6416 12.1711 18.1891 8.66338 13.0673C5.15566 7.94545 7.81536 9.15527e-05 7.81536 9.15527e-05C7.81536 9.15527e-05 16.1655 0.35182 19.678 5.47366Z" fill="#FFB800"/>
<path fill-rule="evenodd" clip-rule="evenodd" d="M8.85338 13.3318C9.65566 12.5072 10.2459 11.5003 10.5735 10.3974C11.1478 8.59662 11.2104 6.67165 10.7544 4.83732C10.2984 3.00299 9.34161 1.33145 7.9909 0.00920105H7.81744C7.81744 0.00920105 5.15293 7.95938 8.66546 13.0764L8.85338 13.3318Z" fill="#FFB800"/>
<path fill-rule="evenodd" clip-rule="evenodd" d="M8.85338 13.3318C9.65566 12.5072 10.2459 11.5003 10.5735 10.3974C11.1478 8.59662 11.2104 6.67165 10.7544 4.83732C10.2984 3.00299 9.34161 1.33145 7.9909 0.00920105H7.81744C7.81744 0.00920105 5.15293 7.95938 8.66546 13.0764L8.85338 13.3318Z" fill="black" fill-opacity="0.2"/>
<path fill-rule="evenodd" clip-rule="evenodd" d="M33.336 1.54245C21.2902 1.54245 11.0465 8.04714 7.15336 17.1633C6.78247 18.026 6.16761 18.7614 5.38436 19.2793C4.60111 19.7972 3.68361 20.0749 2.74463 20.0784V31.4158C3.76189 31.4175 4.75835 31.7041 5.62104 32.2432C6.48373 32.7822 7.17814 33.5522 7.62556 34.4658C11.8367 43.0279 21.7624 49.046 33.336 49.046C48.7256 49.046 61.2049 38.4072 61.2049 25.2918C61.2049 12.1764 48.7256 1.54245 33.336 1.54245Z" fill="#FFB800"/>
<path fill-rule="evenodd" clip-rule="evenodd" d="M2.42123 31.4155C1.08175 31.4155 0.012085 28.8811 0.012085 25.7492C0.012085 22.6173 1.0962 20.0781 2.42123 20.0781C3.74626 20.0781 4.83037 22.6173 4.83037 25.7492C4.83037 28.8811 3.76071 31.4155 2.42123 31.4155Z" fill="#FFB800"/>
<path fill-rule="evenodd" clip-rule="evenodd" d="M2.42123 31.4155C1.08175 31.4155 0.012085 28.8811 0.012085 25.7492C0.012085 22.6173 1.0962 20.0781 2.42123 20.0781C3.74626 20.0781 4.83037 22.6173 4.83037 25.7492C4.83037 28.8811 3.76071 31.4155 2.42123 31.4155Z" fill="black" fill-opacity="0.2"/>
<path fill-rule="evenodd" clip-rule="evenodd" d="M14.327 19.3263C14.327 19.6487 14.2314 19.9637 14.0522 20.2316C13.873 20.4996 13.6184 20.7083 13.3205 20.8314C13.0227 20.9545 12.695 20.9865 12.3789 20.9233C12.0629 20.86 11.7727 20.7045 11.5451 20.4762C11.3176 20.248 11.1628 19.9573 11.1005 19.6411C11.0382 19.3249 11.0712 18.9973 11.1952 18.6998C11.3192 18.4023 11.5287 18.1483 11.7971 17.9699C12.0656 17.7915 12.3809 17.6968 12.7032 17.6978C13.1343 17.699 13.5473 17.8712 13.8517 18.1765C14.1561 18.4818 14.327 18.8953 14.327 19.3263Z" fill="#FFB800"/>
<path fill-rule="evenodd" clip-rule="evenodd" d="M14.327 19.3263C14.327 19.6487 14.2314 19.9637 14.0522 20.2316C13.873 20.4996 13.6184 20.7083 13.3205 20.8314C13.0227 20.9545 12.695 20.9865 12.3789 20.9233C12.0629 20.86 11.7727 20.7045 11.5451 20.4762C11.3176 20.248 11.1628 19.9573 11.1005 19.6411C11.0382 19.3249 11.0712 18.9973 11.1952 18.6998C11.3192 18.4023 11.5287 18.1483 11.7971 17.9699C12.0656 17.7915 12.3809 17.6968 12.7032 17.6978C13.1343 17.699 13.5473 17.8712 13.8517 18.1765C14.1561 18.4818 14.327 18.8953 14.327 19.3263Z" fill="black" fill-opacity="0.2"/>
<path fill-rule="evenodd" clip-rule="evenodd" d="M42.8429 8.21638C42.7049 8.21676 42.5674 8.20058 42.4333 8.1682C37.0142 6.86732 31.3642 6.86732 25.9451 8.1682C25.5025 8.25226 25.0446 8.16278 24.6662 7.91833C24.2878 7.67387 24.0179 7.29318 23.9126 6.85517C23.8073 6.41716 23.8746 5.95542 24.1005 5.56566C24.3264 5.1759 24.6936 4.88801 25.126 4.76167C31.084 3.33549 37.2944 3.33549 43.2524 4.76167C43.6658 4.86559 44.0273 5.11653 44.2691 5.46758C44.511 5.81863 44.6167 6.24575 44.5665 6.66909C44.5163 7.09242 44.3137 7.48299 43.9965 7.76776C43.6792 8.05253 43.2691 8.21201 42.8429 8.21638Z" fill="#FFB800"/>
<path fill-rule="evenodd" clip-rule="evenodd" d="M42.8429 8.21638C42.7049 8.21676 42.5674 8.20058 42.4333 8.1682C37.0142 6.86732 31.3642 6.86732 25.9451 8.1682C25.5025 8.25226 25.0446 8.16278 24.6662 7.91833C24.2878 7.67387 24.0179 7.29318 23.9126 6.85517C23.8073 6.41716 23.8746 5.95542 24.1005 5.56566C24.3264 5.1759 24.6936 4.88801 25.126 4.76167C31.084 3.33549 37.2944 3.33549 43.2524 4.76167C43.6658 4.86559 44.0273 5.11653 44.2691 5.46758C44.511 5.81863 44.6167 6.24575 44.5665 6.66909C44.5163 7.09242 44.3137 7.48299 43.9965 7.76776C43.6792 8.05253 43.2691 8.21201 42.8429 8.21638Z" fill="black" fill-opacity="0.2"/>
<path fill-rule="evenodd" clip-rule="evenodd" d="M1.7924 25.7492C1.7924 26.7514 1.39249 27.5657 0.896202 27.5657C0.399918 27.5657 0 26.7514 0 25.7492C0 24.747 0.399918 23.9279 0.896202 23.9279C1.39249 23.9279 1.7924 24.747 1.7924 25.7492Z" fill="#CF4C26"/>
<path fill-rule="evenodd" clip-rule="evenodd" d="M57.379 18.5652L57.8079 18.6134C58.044 18.6375 58.4439 18.6616 58.9257 18.676C59.5065 18.6894 60.0875 18.6653 60.6651 18.6037C61.3956 18.5256 62.1179 18.3837 62.8237 18.1797C63.598 17.9644 64.332 17.6243 64.9968 17.1727C65.5744 16.8135 66.005 16.2599 66.211 15.6116C66.2764 15.3083 66.2764 14.9946 66.211 14.6913C66.126 14.2921 65.9797 13.9086 65.7773 13.5542C65.6616 13.3451 65.5345 13.1424 65.3967 12.9471L65.175 12.6435C65.1338 12.5958 65.0952 12.546 65.0594 12.4942L64.9968 12.4219L64.9678 12.3833L65.0112 12.4315C64.9197 12.3351 64.7703 12.1521 64.7655 12.1617L64.6257 12.0364C64.5255 11.9605 64.4173 11.8959 64.3029 11.8437C64.1599 11.7838 64.0034 11.7639 63.85 11.7859C63.775 11.8065 63.7049 11.8419 63.6437 11.8899C63.5825 11.9378 63.5314 11.9975 63.4934 12.0653C63.2381 12.4171 63.2381 13.3084 63.5946 14.1613C63.6697 14.4574 63.8388 14.7211 64.0765 14.9129C64.3366 15.0944 64.6416 15.2011 64.9582 15.2213C65.7618 15.2751 66.5662 15.1295 67.2999 14.7973C67.9826 14.5098 68.6165 14.118 69.179 13.6361C69.6136 13.2602 69.9917 12.8237 70.3017 12.34C70.4957 12.023 70.6571 11.6872 70.7835 11.3378C70.8654 11.092 70.8992 10.9523 70.8992 10.9523C70.9244 10.819 70.999 10.7 71.108 10.6192C71.217 10.5384 71.3525 10.5016 71.4874 10.5162C71.6223 10.5308 71.7468 10.5956 71.836 10.6979C71.9252 10.8002 71.9726 10.9323 71.9688 11.0679C71.9688 11.0679 71.9688 11.2414 71.9351 11.5498C71.8826 12.0233 71.7692 12.4881 71.5978 12.9326C71.3338 13.6302 70.9596 14.2809 70.4896 14.8599C69.8834 15.607 69.1532 16.2443 68.331 16.7439C67.3022 17.3927 66.1246 17.7675 64.91 17.8328C64.1272 17.8631 63.3499 17.6887 62.6551 17.3269C62.2633 17.1101 61.91 16.8301 61.6095 16.4982C61.4698 16.3355 61.3395 16.165 61.2192 15.9874L60.9253 15.5056C60.5341 14.8477 60.2541 14.1297 60.0966 13.3807C59.8999 12.4783 59.9668 11.5383 60.2893 10.6728C60.4717 10.178 60.7482 9.72311 61.1036 9.33336C61.4794 8.92601 61.9333 8.59831 62.4382 8.3697C63.4465 7.9251 64.5875 7.88712 65.6231 8.2637C66.0886 8.43389 66.5268 8.67086 66.9241 8.96716C67.123 9.11441 67.3114 9.27542 67.4878 9.44899C67.7143 9.66582 67.7576 9.72846 67.8781 9.85374L67.9648 9.95491L68.0082 10.0127L68.0949 10.1187L68.2587 10.3307C68.3696 10.4753 68.4804 10.6247 68.5816 10.7788C68.7982 11.0879 68.9961 11.4097 69.1742 11.7425C69.5659 12.4495 69.8439 13.2137 69.9981 14.0071C70.1623 14.8538 70.1336 15.7267 69.9142 16.5608C69.6948 17.3949 69.2904 18.169 68.7309 18.8254C68.2607 19.3869 67.7084 19.8743 67.0927 20.2709C66.0741 20.9154 64.953 21.3814 63.7777 21.6489C62.1323 22.0267 60.435 22.1244 58.7571 21.938C58.1548 21.8754 57.7019 21.7935 57.3694 21.726L56.9165 21.6248C56.5346 21.5409 56.1993 21.3142 55.9792 20.9911C55.759 20.6681 55.6707 20.2731 55.7323 19.887C55.7938 19.5009 56.0007 19.153 56.3104 18.9144C56.6201 18.6759 57.0093 18.5647 57.3983 18.6037L57.379 18.5652Z" fill="#FFB800"/>
<path fill-rule="evenodd" clip-rule="evenodd" d="M51.7742 50.1527C51.7742 51.6367 49.2446 52.8365 46.1224 52.8365C43.0001 52.8365 40.4657 51.6367 40.4657 50.1527C40.4657 48.6686 43.0001 47.4641 46.1224 47.4641C49.2446 47.4641 51.7742 48.6686 51.7742 50.1527Z" fill="#FFB800"/>
<path fill-rule="evenodd" clip-rule="evenodd" d="M51.7742 50.1527C51.7742 51.6367 49.2446 52.8365 46.1224 52.8365C43.0001 52.8365 40.4657 51.6367 40.4657 50.1527C40.4657 48.6686 43.0001 47.4641 46.1224 47.4641C49.2446 47.4641 51.7742 48.6686 51.7742 50.1527Z" fill="black" fill-opacity="0.4"/>
<path fill-rule="evenodd" clip-rule="evenodd" d="M25.633 50.1527C25.633 51.6367 23.1034 52.8365 19.9811 52.8365C16.8589 52.8365 14.3245 51.6367 14.3245 50.1527C14.3245 48.6686 16.8589 47.4641 19.9811 47.4641C23.1034 47.4641 25.633 48.6686 25.633 50.1527Z" fill="#FFB800"/>
<path fill-rule="evenodd" clip-rule="evenodd" d="M25.633 50.1527C25.633 51.6367 23.1034 52.8365 19.9811 52.8365C16.8589 52.8365 14.3245 51.6367 14.3245 50.1527C14.3245 48.6686 16.8589 47.4641 19.9811 47.4641C23.1034 47.4641 25.633 48.6686 25.633 50.1527Z" fill="black" fill-opacity="0.4"/>
</svg>
